<svg xmlns="http://www.w3.org/2000/svg" width="16" height="16"><path d="M16 14.5a1.5 1.5 0 01-1.5 1.5h-13A1.5 1.5 0 010 14.5V6.272a1.5 1.5 0 01.575-1.18c.779-.61 1.422-1.105 5.131-3.8C6.232.911 7.275-.011 8 0c.725-.011 1.769.912 2.294 1.295 3.709 2.692 4.353 3.187 5.131 3.8A1.5 1.5 0 0116 6.272zm-2.052-6.144a.25.25 0 00-.354-.06c-.714.527-1.733 1.272-3.3 2.409C9.768 11.088 8.725 12.011 8 12c-.725.011-1.767-.911-2.294-1.295a741.786 741.786 0 01-3.3-2.405.25.25 0 00-.354.06l-.283.412a.25.25 0 00.057.343c.715.528 1.733 1.272 3.291 2.4C5.75 11.975 6.883 13.007 8 13c1.116.008 2.249-1.024 2.883-1.487a675.17 675.17 0 003.291-2.4.25.25 0 00.057-.343z" fill="#204066"/></svg>