<svg height="60" width="60" xmlns="http://www.w3.org/2000/svg"><path d="M55.618 52.214a1 1 0 11-1.236 1.572l-14-11a1 1 0 111.236-1.572l14 11zM19.786 41.382a1 1 0 01-.168 1.404l-14 11a.997.997 0 01-1.404-.168 1 1 0 01.168-1.404l14-11a.999.999 0 011.404.168zm35.82-13.587l-21.958 16.75C33.485 44.678 31.803 46 30 46c-1.794 0-3.463-1.372-3.648-1.528L4.395 27.796a.998.998 0 01-.191-1.4.997.997 0 011.4-.192l22 16.709C27.994 43.238 29.098 44 30 44c.929 0 2.057-.742 2.414-1.028l21.979-16.767a.999.999 0 011.402.189.999.999 0 01-.189 1.401zM58 55c0 1.71-1.29 3-3 3H5c-1.683 0-3-1.317-3-3V23c0-2.317.915-4.19 2.555-5.169l22.006-14.72C26.579 3.1 28.34 2 30 2c1.673 0 3.401 1.06 3.402 1.06l22.074 14.793C57.562 19.133 58 21.359 58 23v32zm-1.444-38.831L34.49 1.381C34.4 1.325 32.262 0 30 0c-2.268 0-4.428 1.369-4.534 1.439L3.488 16.141C1.271 17.46 0 19.96 0 23v32c0 2.804 2.196 5 5 5h50c2.804 0 5-2.196 5-5V23c0-3.042-1.235-5.474-3.444-6.831z" fill-rule="evenodd"/></svg>