<svg xmlns="http://www.w3.org/2000/svg" width="36" height="31.5"><path d="M32.625 0h-9a3.376 3.376 0 00-3.375 3.375v9a3.376 3.376 0 003.375 3.375h5.625v4.5a4.5 4.5 0 01-4.5 4.5h-.562a1.683 1.683 0 00-1.688 1.688v3.375a1.683 1.683 0 001.688 1.687h.563A11.247 11.247 0 0036 20.25V3.375A3.376 3.376 0 0032.625 0zm-20.25 0h-9A3.376 3.376 0 000 3.375v9a3.376 3.376 0 003.375 3.375H9v4.5a4.5 4.5 0 01-4.5 4.5h-.562a1.683 1.683 0 00-1.688 1.688v3.375A1.683 1.683 0 003.938 31.5H4.5a11.247 11.247 0 0011.25-11.25V3.375A3.376 3.376 0 0012.375 0z" fill="#5b789a"/></svg>