<svg xmlns="http://www.w3.org/2000/svg" width="26.286" height="26.286"><path d="M13.143 5.328a7.732 7.732 0 00-6.554 11.846l.182.293-.78 2.852 2.928-.769.282.17a7.713 7.713 0 003.937 1.08h.006a7.673 7.673 0 005.468-13.2 7.674 7.674 0 00-5.468-2.271zm4.547 11.054a2.371 2.371 0 01-1.567 1.1 4.535 4.535 0 01-2.787-.581A10.445 10.445 0 019.364 13.4a4.5 4.5 0 01-.951-2.406 2.6 2.6 0 01.816-1.942.847.847 0 01.622-.293c.153 0 .311 0 .446.006s.334-.053.522.4.657 1.608.716 1.725a.411.411 0 01.018.4c-.446.892-.921.857-.681 1.267a6.334 6.334 0 003.163 2.764c.235.117.37.1.5-.059s.581-.681.733-.909.311-.194.522-.117 1.355.64 1.59.757.387.176.446.27a2.064 2.064 0 01-.136 1.119zM23.469 0H2.816A2.817 2.817 0 000 2.816v20.653a2.817 2.817 0 002.816 2.816h20.653a2.817 2.817 0 002.816-2.816V2.816A2.817 2.817 0 0023.469 0zM13.137 22.366a9.3 9.3 0 01-4.447-1.132l-4.934 1.3 1.32-4.823a9.322 9.322 0 1117.455-4.641 9.391 9.391 0 01-9.394 9.3z" fill="#689e6a"/></svg>