<svg xmlns="http://www.w3.org/2000/svg" width="60" height="46.667"><path d="M60 19.167v1.667a2.5 2.5 0 01-2.5 2.5h-.833l-2.72 19.04A5 5 0 0149 46.667H11a5 5 0 01-4.95-4.293l-2.72-19.04H2.5a2.5 2.5 0 01-2.5-2.5v-1.667a2.5 2.5 0 012.5-2.5h7.015L20.638 1.373a3.333 3.333 0 115.392 3.921l-8.272 11.373h24.484L33.971 5.294a3.333 3.333 0 015.392-3.921l11.122 15.294H57.5a2.5 2.5 0 012.5 2.5zM32.5 37.503V25.834a2.5 2.5 0 00-5 0v11.669a2.5 2.5 0 005 0zm11.667 0V25.834a2.5 2.5 0 00-5 0v11.669a2.5 2.5 0 005 0zm-23.333 0V25.834a2.5 2.5 0 00-5 0v11.669a2.5 2.5 0 005 0z" fill="#8a9fba"/></svg>