<svg xmlns="http://www.w3.org/2000/svg" width="60" height="48"><path d="M14.151 18h3.162a1.477 1.477 0 001.393-1.986 11.738 11.738 0 010-8.029A1.477 1.477 0 0017.313 6h-3.162a1.5 1.5 0 00-1.445 1.053 17.673 17.673 0 000 9.893A1.5 1.5 0 0014.151 18zM8.43 2.188A1.484 1.484 0 007.121 0H3.809a1.517 1.517 0 00-1.382.873A26.781 26.781 0 000 12a26.126 26.126 0 002.5 11.143A1.509 1.509 0 003.872 24h3.266a1.485 1.485 0 001.308-2.191A20.908 20.908 0 018.43 2.188zM57.568.871A1.516 1.516 0 0056.187 0h-3.32a1.482 1.482 0 00-1.314 2.18 21.024 21.024 0 01.026 19.615 1.488 1.488 0 001.3 2.2h3.3a1.516 1.516 0 001.381-.871 26.672 26.672 0 000-22.258zM45.849 6h-3.162a1.477 1.477 0 00-1.393 1.986 11.738 11.738 0 010 8.029A1.477 1.477 0 0042.687 18h3.162a1.5 1.5 0 001.445-1.054 17.67 17.67 0 000-9.892A1.494 1.494 0 0045.849 6zm-10.9 9.386a6 6 0 10-9.892 0L12.819 44.768a1.5 1.5 0 00.807 1.961l2.767 1.154a1.5 1.5 0 001.96-.807L22.965 36h14.069l4.613 11.077a1.5 1.5 0 001.96.807l2.767-1.154a1.5 1.5 0 00.807-1.961L34.946 15.386zM25.464 30L30 19.107 34.536 30z" fill="#8a9fba"/></svg>